<svg id="my-svg" width="100%" xmlns="http://www.w3.org/2000/svg" xmlns:xlink="http://www.w3.org/1999/xlink" class="flowchart" style="max-width: 815.5px; background-color: transparent;" viewBox="4 4 815.5 1145" role="graphics-document document" aria-roledescription="flowchart-elk"><style>#my-svg{font-family:Helvetica,Arial,sans-serif;font-size:16px;fill:#333;}@keyframes edge-animation-frame{from{stroke-dashoffset:0;}}@keyframes dash{to{stroke-dashoffset:0;}}#my-svg .edge-animation-slow{stroke-dasharray:9,5!important;stroke-dashoffset:900;animation:dash 50s linear infinite;stroke-linecap:round;}#my-svg .edge-animation-fast{stroke-dasharray:9,5!important;stroke-dashoffset:900;animation:dash 20s linear infinite;stroke-linecap:round;}#my-svg .error-icon{fill:#552222;}#my-svg .error-text{fill:#552222;stroke:#552222;}#my-svg .edge-thickness-normal{stroke-width:1px;}#my-svg .edge-thickness-thick{stroke-width:3.5px;}#my-svg .edge-pattern-solid{stroke-dasharray:0;}#my-svg .edge-thickness-invisible{stroke-width:0;fill:none;}#my-svg .edge-pattern-dashed{stroke-dasharray:3;}#my-svg .edge-pattern-dotted{stroke-dasharray:2;}#my-svg .marker{fill:#333333;stroke:#333333;}#my-svg .marker.cross{stroke:#333333;}#my-svg svg{font-family:Helvetica,Arial,sans-serif;font-size:16px;}#my-svg p{margin:0;}#my-svg .label{font-family:Helvetica,Arial,sans-serif;color:#333;}#my-svg .cluster-label text{fill:#333;}#my-svg .cluster-label span{color:#333;}#my-svg .cluster-label span p{background-color:transparent;}#my-svg .label text,#my-svg span{fill:#333;color:#333;}#my-svg .node rect,#my-svg .node circle,#my-svg .node ellipse,#my-svg .node polygon,#my-svg .node path{fill:#ECECFF;stroke:#9370DB;stroke-width:1px;}#my-svg .rough-node .label text,#my-svg .node .label text,#my-svg .image-shape .label,#my-svg .icon-shape .label{text-anchor:middle;}#my-svg .node .katex path{fill:#000;stroke:#000;stroke-width:1px;}#my-svg .rough-node .label,#my-svg .node .label,#my-svg .image-shape .label,#my-svg .icon-shape .label{text-align:center;}#my-svg .node.clickable{cursor:pointer;}#my-svg .root .anchor path{fill:#333333!important;stroke-width:0;stroke:#333333;}#my-svg .arrowheadPath{fill:#333333;}#my-svg .edgePath .path{stroke:#333333;stroke-width:2.0px;}#my-svg .flowchart-link{stroke:#333333;fill:none;}#my-svg .edgeLabel{background-color:rgba(232,232,232, 0.8);text-align:center;}#my-svg .edgeLabel p{background-color:rgba(232,232,232, 0.8);}#my-svg .edgeLabel rect{opacity:0.5;background-color:rgba(232,232,232, 0.8);fill:rgba(232,232,232, 0.8);}#my-svg .labelBkg{background-color:rgba(232, 232, 232, 0.5);}#my-svg .cluster rect{fill:#ffffde;stroke:#aaaa33;stroke-width:1px;}#my-svg .cluster text{fill:#333;}#my-svg .cluster span{color:#333;}#my-svg div.mermaidTooltip{position:absolute;text-align:center;max-width:200px;padding:2px;font-family:Helvetica,Arial,sans-serif;font-size:12px;background:hsl(80, 100%, 96.2745098039%);border:1px solid #aaaa33;border-radius:2px;pointer-events:none;z-index:100;}#my-svg .flowchartTitleText{text-anchor:middle;font-size:18px;fill:#333;}#my-svg rect.text{fill:none;stroke-width:0;}#my-svg .icon-shape,#my-svg .image-shape{background-color:rgba(232,232,232, 0.8);text-align:center;}#my-svg .icon-shape p,#my-svg .image-shape p{background-color:rgba(232,232,232, 0.8);padding:2px;}#my-svg .icon-shape rect,#my-svg .image-shape rect{opacity:0.5;background-color:rgba(232,232,232, 0.8);fill:rgba(232,232,232, 0.8);}#my-svg .label-icon{display:inline-block;height:1em;overflow:visible;vertical-align:-0.125em;}#my-svg .node .label-icon path{fill:currentColor;stroke:revert;stroke-width:revert;}#my-svg .node rect,#my-svg .node polygon,#my-svg .node circle,#my-svg .node ellipse,#my-svg .node path{stroke:#24292e;}#my-svg text{font-size:20px!important;}#my-svg :root{--mermaid-font-family:Helvetica,Arial,sans-serif;}</style><g><marker id="my-svg_flowchart-elk-pointEnd" class="marker flowchart-elk" viewBox="0 0 10 10" refX="5" refY="5" markerUnits="userSpaceOnUse" markerWidth="8" markerHeight="8" orient="auto"><path d="M 0 0 L 10 5 L 0 10 z" class="arrowMarkerPath" style="stroke-width: 1; stroke-dasharray: 1, 0;"/></marker><marker id="my-svg_flowchart-elk-pointStart" class="marker flowchart-elk" viewBox="0 0 10 10" refX="4.5" refY="5" markerUnits="userSpaceOnUse" markerWidth="8" markerHeight="8" orient="auto"><path d="M 0 5 L 10 10 L 10 0 z" class="arrowMarkerPath" style="stroke-width: 1; stroke-dasharray: 1, 0;"/></marker><marker id="my-svg_flowchart-elk-circleEnd" class="marker flowchart-elk" viewBox="0 0 10 10" refX="11" refY="5" markerUnits="userSpaceOnUse" markerWidth="11" markerHeight="11" orient="auto"><circle cx="5" cy="5" r="5" class="arrowMarkerPath" style="stroke-width: 1; stroke-dasharray: 1, 0;"/></marker><marker id="my-svg_flowchart-elk-circleStart" class="marker flowchart-elk" viewBox="0 0 10 10" refX="-1" refY="5" markerUnits="userSpaceOnUse" markerWidth="11" markerHeight="11" orient="auto"><circle cx="5" cy="5" r="5" class="arrowMarkerPath" style="stroke-width: 1; stroke-dasharray: 1, 0;"/></marker><marker id="my-svg_flowchart-elk-crossEnd" class="marker cross flowchart-elk" viewBox="0 0 11 11" refX="12" refY="5.2" markerUnits="userSpaceOnUse" markerWidth="11" markerHeight="11" orient="auto"><path d="M 1,1 l 9,9 M 10,1 l -9,9" class="arrowMarkerPath" style="stroke-width: 2; stroke-dasharray: 1, 0;"/></marker><marker id="my-svg_flowchart-elk-crossStart" class="marker cross flowchart-elk" viewBox="0 0 11 11" refX="-1" refY="5.2" markerUnits="userSpaceOnUse" markerWidth="11" markerHeight="11" orient="auto"><path d="M 1,1 l 9,9 M 10,1 l -9,9" class="arrowMarkerPath" style="stroke-width: 2; stroke-dasharray: 1, 0;"/></marker></g><g class="subgraphs"><g class="subgraph"><g class="cluster" id="Teams" data-look="classic"><rect style="fill:#f4e8e8 !important;stroke:#6a2d2d !important" x="30.5" y="578.5" width="231.15625" height="209"/><g class="cluster-label" transform="translate(116.625, 578.5)"><g><rect class="background" style="stroke: none"/><text y="-10.1" style=""><tspan class="text-outer-tspan" x="0" y="-0.1em" dy="1.1em"><tspan font-style="normal" class="text-inner-tspan" font-weight="normal">Teams</tspan></tspan></text></g></g></g></g><g class="subgraph"><g class="cluster" id="Notifications" data-look="classic"><rect style="fill:#e8e8f4 !important;stroke:#2d2d6a !important" x="550.078125" y="932" width="261.421875" height="209"/><g class="cluster-label" transform="translate(626.3203125, 932)"><g><rect class="background" style="stroke: none"/><text y="-10.1" style=""><tspan class="text-outer-tspan" x="0" y="-0.1em" dy="1.1em"><tspan font-style="normal" class="text-inner-tspan" font-weight="normal">Notifications</tspan></tspan></text></g></g></g></g><g class="subgraph"><g class="cluster" id="Documents" data-look="classic"><rect style="fill:#f4f4e8 !important;stroke:#6a6a2d !important" x="296.65625" y="578.5" width="363.421875" height="224"/><g class="cluster-label" transform="translate(427.7890625, 578.5)"><g><rect class="background" style="stroke: none"/><text y="-10.1" style=""><tspan class="text-outer-tspan" x="0" y="-0.1em" dy="1.1em"><tspan font-style="normal" class="text-inner-tspan" font-weight="normal">Documents</tspan></tspan></text></g></g></g></g><g class="subgraph"><g class="cluster" id="Billing" data-look="classic"><rect style="fill:#e8f4e8 !important;stroke:#2d6a2d !important" x="251.57682291666674" y="118.5" width="538.5625" height="348"/><g class="cluster-label" transform="translate(494.17838541666674, 118.5)"><g><rect class="background" style="stroke: none"/><text y="-10.1" style=""><tspan class="text-outer-tspan" x="0" y="-0.1em" dy="1.1em"><tspan font-style="normal" class="text-inner-tspan" font-weight="normal">Billing</tspan></tspan></text></g></g></g></g></g><g class="nodes"><g class="node default" id="flowchart-Team-14" transform="translate(187.11458333333334, 649.5)"><rect class="basic label-container" style="" x="-59.5625" y="-32" width="119.125" height="64"/><g class="label" style="" transform="translate(-19.5625, -12)"><rect/><foreignObject width="39.125" height="24"><div xmlns="http://www.w3.org/1999/xhtml" style="display: table-cell; white-space: nowrap; line-height: 1.5; max-width: 200px; text-align: center;"><span class="nodeLabel"><p>Team</p></span></div></foreignObject></g></g><g class="node default" id="flowchart-TeamMembership-15" transform="translate(146.078125, 743.5)"><rect class="basic label-container" style="" x="-103.578125" y="-32" width="207.15625" height="64"/><g class="label" style="" transform="translate(-63.578125, -12)"><rect/><foreignObject width="127.15625" height="24"><div xmlns="http://www.w3.org/1999/xhtml" style="display: table-cell; white-space: nowrap; line-height: 1.5; max-width: 200px; text-align: center;"><span class="nodeLabel"><p>TeamMembership</p></span></div></foreignObject></g></g><g class="node default" id="flowchart-Notification-12" transform="translate(680.7890625, 1003)"><rect class="basic label-container" style="" x="-79.578125" y="-32" width="159.15625" height="64"/><g class="label" style="" transform="translate(-39.578125, -12)"><rect/><foreignObject width="79.15625" height="24"><div xmlns="http://www.w3.org/1999/xhtml" style="display: table-cell; white-space: nowrap; line-height: 1.5; max-width: 200px; text-align: center;"><span class="nodeLabel"><p>Notification</p></span></div></foreignObject></g></g><g class="node default" id="flowchart-NotifPref-13" transform="translate(680.7890625, 1097)"><rect class="basic label-container" style="" x="-118.7109375" y="-32" width="237.421875" height="64"/><g class="label" style="" transform="translate(-78.7109375, -12)"><rect/><foreignObject width="157.421875" height="24"><div xmlns="http://www.w3.org/1999/xhtml" style="display: table-cell; white-space: nowrap; line-height: 1.5; max-width: 200px; text-align: center;"><span class="nodeLabel"><p>NotificationPreference</p></span></div></foreignObject></g></g><g class="node default" id="flowchart-Document-8" transform="translate(421.13671875, 649.5)"><rect class="basic label-container" style="" x="-76.4609375" y="-32" width="152.921875" height="64"/><g class="label" style="" transform="translate(-36.4609375, -12)"><rect/><foreignObject width="72.921875" height="24"><div xmlns="http://www.w3.org/1999/xhtml" style="display: table-cell; white-space: nowrap; line-height: 1.5; max-width: 200px; text-align: center;"><span class="nodeLabel"><p>Document</p></span></div></foreignObject></g></g><g class="node default" id="flowchart-Template-9" transform="translate(559.6171875, 758.5)"><rect class="basic label-container" style="" x="-72.4609375" y="-32" width="144.921875" height="64"/><g class="label" style="" transform="translate(-32.4609375, -12)"><rect/><foreignObject width="64.921875" height="24"><div xmlns="http://www.w3.org/1999/xhtml" style="display: table-cell; white-space: nowrap; line-height: 1.5; max-width: 200px; text-align: center;"><span class="nodeLabel"><p>Template</p></span></div></foreignObject></g></g><g class="node default" id="flowchart-Signature-11" transform="translate(382.90625, 758.5)"><rect class="basic label-container" style="" x="-74.25" y="-32" width="148.5" height="64"/><g class="label" style="" transform="translate(-34.25, -12)"><rect/><foreignObject width="68.5" height="24"><div xmlns="http://www.w3.org/1999/xhtml" style="display: table-cell; white-space: nowrap; line-height: 1.5; max-width: 200px; text-align: center;"><span class="nodeLabel"><p>Signature</p></span></div></foreignObject></g></g><g class="node default" id="flowchart-Invoice-0" transform="translate(391.16796875, 189.5)"><rect class="basic label-container" style="" x="-65.3515625" y="-32" width="130.703125" height="64"/><g class="label" style="" transform="translate(-25.3515625, -12)"><rect/><foreignObject width="50.703125" height="24"><div xmlns="http://www.w3.org/1999/xhtml" style="display: table-cell; white-space: nowrap; line-height: 1.5; max-width: 200px; text-align: center;"><span class="nodeLabel"><p>Invoice</p></span></div></foreignObject></g></g><g class="node default" id="flowchart-Subscription-1" transform="translate(347.6002604166667, 328.5)"><rect class="basic label-container" style="" x="-84.0234375" y="-32" width="168.046875" height="64"/><g class="label" style="" transform="translate(-44.0234375, -12)"><rect/><foreignObject width="88.046875" height="24"><div xmlns="http://www.w3.org/1999/xhtml" style="display: table-cell; white-space: nowrap; line-height: 1.5; max-width: 200px; text-align: center;"><span class="nodeLabel"><p>Subscription</p></span></div></foreignObject></g></g><g class="node default" id="flowchart-LineItem-3" transform="translate(707.4518229166667, 328.5)"><rect class="basic label-container" style="" x="-70.6875" y="-32" width="141.375" height="64"/><g class="label" style="" transform="translate(-30.6875, -12)"><rect/><foreignObject width="61.375" height="24"><div xmlns="http://www.w3.org/1999/xhtml" style="display: table-cell; white-space: nowrap; line-height: 1.5; max-width: 200px; text-align: center;"><span class="nodeLabel"><p>LineItem</p></span></div></foreignObject></g></g><g class="node default" id="flowchart-Plan-5" transform="translate(319.5924479166667, 422.5)"><rect class="basic label-container" style="" x="-56.015625" y="-32" width="112.03125" height="64"/><g class="label" style="" transform="translate(-16.015625, -12)"><rect/><foreignObject width="32.03125" height="24"><div xmlns="http://www.w3.org/1999/xhtml" style="display: table-cell; white-space: nowrap; line-height: 1.5; max-width: 200px; text-align: center;"><span class="nodeLabel"><p>Plan</p></span></div></foreignObject></g></g><g class="node default" id="flowchart-Payment-7" transform="translate(534.1940104166667, 328.5)"><rect class="basic label-container" style="" x="-71.5703125" y="-32" width="143.140625" height="64"/><g class="label" style="" transform="translate(-31.5703125, -12)"><rect/><foreignObject width="63.140625" height="24"><div xmlns="http://www.w3.org/1999/xhtml" style="display: table-cell; white-space: nowrap; line-height: 1.5; max-width: 200px; text-align: center;"><span class="nodeLabel"><p>Payment</p></span></div></foreignObject></g></g><g class="node default" id="flowchart-User-24" transform="translate(131.73645833333336, 44)"><rect class="basic label-container" style="" x="-56.890625" y="-32" width="113.78125" height="64"/><g class="label" style="" transform="translate(-16.890625, -12)"><rect/><foreignObject width="33.78125" height="24"><div xmlns="http://www.w3.org/1999/xhtml" style="display: table-cell; white-space: nowrap; line-height: 1.5; max-width: 200px; text-align: center;"><span class="nodeLabel"><p>User</p></span></div></foreignObject></g></g></g><g class="edges edgePaths"><path d="M347.6,221.5L347.6,292.5" id="L_Invoice_Subscription_0_0" class="edge-thickness-normal edge-pattern-solid edge-thickness-normal edge-pattern-solid flowchart-link" style=";" data-edge="true" data-et="edge" data-id="L_Invoice_Subscription_0_0" data-points="W3sieCI6MzQ3LjYwMDI2MDQxNjY2NjcsInkiOjIyMS41fSx7IngiOjM0Ny42MDAyNjA0MTY2NjY3LCJ5IjoyOTYuNX1d" marker-end="url(#my-svg_flowchart-elk-pointEnd)"/><path d="M434.736,221.5L434.736,223.167C434.736,224.833,434.736,228.167,435.098,230.305C435.46,232.443,436.183,233.386,437.017,234.219C437.85,235.052,438.793,235.776,483.05,236.138C527.308,236.5,614.88,236.5,659.137,236.862C703.395,237.224,704.337,237.948,705.171,238.781C706.004,239.614,706.728,240.557,707.09,249.529C707.452,258.5,707.452,275.5,707.452,284L707.452,292.5" id="L_Invoice_LineItem_0_0" class="edge-thickness-normal edge-pattern-solid edge-thickness-normal edge-pattern-solid flowchart-link" style=";" data-edge="true" data-et="edge" data-id="L_Invoice_LineItem_0_0" data-points="W3sieCI6NDM0LjczNTY3NzA4MzMzMzM3LCJ5IjoyMjEuNX0seyJ4Ijo0MzQuNzM1Njc3MDgzMzMzMzcsInkiOjIzNi41fSx7IngiOjcwNy40NTE4MjI5MTY2NjY3LCJ5IjoyMzYuNX0seyJ4Ijo3MDcuNDUxODIyOTE2NjY2NywieSI6Mjk2LjV9XQ==" marker-end="url(#my-svg_flowchart-elk-pointEnd)"/><path d="M319.592,360.5L319.592,386.5" id="L_Subscription_Plan_0_0" class="edge-thickness-normal edge-pattern-solid edge-thickness-normal edge-pattern-solid flowchart-link" style=";" data-edge="true" data-et="edge" data-id="L_Subscription_Plan_0_0" data-points="W3sieCI6MzE5LjU5MjQ0NzkxNjY2NjcsInkiOjM2MC41fSx7IngiOjMxOS41OTI0NDc5MTY2NjY3LCJ5IjozOTAuNX1d" marker-end="url(#my-svg_flowchart-elk-pointEnd)"/><path d="M391.168,221.5L391.168,228.167C391.168,234.833,391.168,248.167,391.53,255.305C391.892,262.443,392.616,263.386,393.449,264.219C394.282,265.052,395.225,265.776,417.868,266.138C440.51,266.5,484.852,266.5,507.494,266.862C530.137,267.224,531.08,267.948,531.913,268.781C532.746,269.614,533.47,270.557,533.832,274.529C534.194,278.5,534.194,285.5,534.194,289L534.194,292.5" id="L_Invoice_Payment_0_0" class="edge-thickness-normal edge-pattern-solid edge-thickness-normal edge-pattern-solid flowchart-link" style=";" data-edge="true" data-et="edge" data-id="L_Invoice_Payment_0_0" data-points="W3sieCI6MzkxLjE2Nzk2ODc1LCJ5IjoyMjEuNX0seyJ4IjozOTEuMTY3OTY4NzUsInkiOjI2Ni41fSx7IngiOjUzNC4xOTQwMTA0MTY2NjY3LCJ5IjoyNjYuNX0seyJ4Ijo1MzQuMTk0MDEwNDE2NjY2NywieSI6Mjk2LjV9XQ==" marker-end="url(#my-svg_flowchart-elk-pointEnd)"/><path d="M421.137,681.5L421.137,685.667C421.137,689.833,421.137,698.167,421.499,702.805C421.861,707.443,422.584,708.386,423.418,709.219C424.251,710.052,425.194,710.776,447.079,711.138C468.964,711.5,511.79,711.5,533.675,711.862C555.56,712.224,556.503,712.948,557.336,713.781C558.169,714.614,558.893,715.557,559.255,717.029C559.617,718.5,559.617,720.5,559.617,721.5L559.617,722.5" id="L_Document_Template_0_0" class="edge-thickness-normal edge-pattern-solid edge-thickness-normal edge-pattern-solid flowchart-link" style=";" data-edge="true" data-et="edge" data-id="L_Document_Template_0_0" data-points="W3sieCI6NDIxLjEzNjcxODc1LCJ5Ijo2ODEuNX0seyJ4Ijo0MjEuMTM2NzE4NzUsInkiOjcxMS41fSx7IngiOjU1OS42MTcxODc1LCJ5Ijo3MTEuNX0seyJ4Ijo1NTkuNjE3MTg3NSwieSI6NzI2LjV9XQ==" marker-end="url(#my-svg_flowchart-elk-pointEnd)"/><path d="M382.906,681.5L382.906,722.5" id="L_Document_Signature_0_0" class="edge-thickness-normal edge-pattern-solid edge-thickness-normal edge-pattern-solid flowchart-link" style=";" data-edge="true" data-et="edge" data-id="L_Document_Signature_0_0" data-points="W3sieCI6MzgyLjkwNjI1LCJ5Ijo2ODEuNX0seyJ4IjozODIuOTA2MjUsInkiOjcyNi41fV0=" marker-end="url(#my-svg_flowchart-elk-pointEnd)"/><path d="M680.789,1035L680.789,1061" id="L_Notification_NotifPref_0_0" class="edge-thickness-normal edge-pattern-solid edge-thickness-normal edge-pattern-solid flowchart-link" style=";" data-edge="true" data-et="edge" data-id="L_Notification_NotifPref_0_0" data-points="W3sieCI6NjgwLjc4OTA2MjUsInkiOjEwMzV9LHsieCI6NjgwLjc4OTA2MjUsInkiOjEwNjV9XQ==" marker-end="url(#my-svg_flowchart-elk-pointEnd)"/><path d="M187.115,681.5L187.115,683.167C187.115,684.833,187.115,688.167,187.115,690.667C187.115,693.167,187.115,694.833,186.281,695.667C185.448,696.5,183.781,696.5,183.53,696.5C183.278,696.5,184.441,696.5,184.189,696.5C183.938,696.5,182.271,696.5,181.438,697.333C180.604,698.167,180.604,699.833,180.604,701.667C180.604,703.5,180.604,705.5,180.604,706.5L180.604,707.5" id="L_Team_TeamMembership_0_0" class="edge-thickness-normal edge-pattern-solid edge-thickness-normal edge-pattern-solid flowchart-link" style=";" data-edge="true" data-et="edge" data-id="L_Team_TeamMembership_0_0" data-points="W3sieCI6MTg3LjExNDU4MzMzMzMzMzM0LCJ5Ijo2ODEuNX0seyJ4IjoxODcuMTE0NTgzMzMzMzMzMzQsInkiOjY5Ni41fSx7IngiOjE4MC42MDQxNjY2NjY2NjY2OSwieSI6Njk2LjV9LHsieCI6MTgwLjYwNDE2NjY2NjY2NjY5LCJ5Ijo3MTEuNX1d" marker-end="url(#my-svg_flowchart-elk-pointEnd)"/><path d="M412.952,221.5L412.952,225.667C412.952,229.833,412.952,238.167,413.314,242.805C413.676,247.443,414.4,248.386,415.233,249.219C416.066,250.052,417.009,250.776,451.283,251.138C485.556,251.5,553.16,251.5,586.962,288.583C620.764,325.667,620.764,399.833,620.764,439C620.764,478.167,620.764,482.333,621.126,484.888C621.488,487.443,622.212,488.386,623.045,489.219C623.879,490.052,624.822,490.776,640.262,491.138C655.702,491.5,685.64,491.5,701.081,491.862C716.521,492.224,717.464,492.948,718.297,493.781C719.13,494.614,719.854,495.557,720.216,500.362C720.578,505.167,720.578,513.833,720.578,574.167C720.578,634.5,720.578,746.5,720.578,813.5C720.578,880.5,720.578,902.5,720.578,920.583C720.578,938.667,720.578,952.833,720.578,959.917L720.578,967" id="L_Invoice_Notification_0_0" class="edge-thickness-normal edge-pattern-dotted edge-thickness-normal edge-pattern-solid flowchart-link" style=";" data-edge="true" data-et="edge" data-id="L_Invoice_Notification_0_0" data-points="W3sieCI6NDEyLjk1MTgyMjkxNjY2NjcsInkiOjIyMS41fSx7IngiOjQxMi45NTE4MjI5MTY2NjY3LCJ5IjoyNTEuNX0seyJ4Ijo2MjAuNzY0MzIyOTE2NjY2NywieSI6MjUxLjV9LHsieCI6NjIwLjc2NDMyMjkxNjY2NjYsInkiOjQ3NH0seyJ4Ijo2MjAuNzY0MzIyOTE2NjY2NiwieSI6NDkxLjV9LHsieCI6NzIwLjU3ODEyNSwieSI6NDkxLjV9LHsieCI6NzIwLjU3ODEyNSwieSI6NTIyLjV9LHsieCI6NzIwLjU3ODEyNSwieSI6ODU4LjV9LHsieCI6NzIwLjU3ODEyNSwieSI6OTI0LjV9LHsieCI6NzIwLjU3ODEyNSwieSI6OTcxfV0=" marker-end="url(#my-svg_flowchart-elk-pointEnd)"/><path d="M369.384,221.5L369.384,230.667C369.384,239.833,369.384,258.167,369.746,267.805C370.108,277.443,370.832,278.386,371.665,279.219C372.498,280.052,373.441,280.776,385.953,281.138C398.464,281.5,422.544,281.5,434.584,313.583C446.624,345.667,446.624,409.833,446.624,458.083C446.624,506.333,446.624,538.667,446.624,561.917C446.624,585.167,446.624,599.333,446.624,606.417L446.624,613.5" id="L_Invoice_Document_0_0" class="edge-thickness-normal edge-pattern-dotted edge-thickness-normal edge-pattern-solid flowchart-link" style=";" data-edge="true" data-et="edge" data-id="L_Invoice_Document_0_0" data-points="W3sieCI6MzY5LjM4NDExNDU4MzMzMzM3LCJ5IjoyMjEuNX0seyJ4IjozNjkuMzg0MTE0NTgzMzMzMzcsInkiOjI4MS41fSx7IngiOjQ0Ni42MjM2OTc5MTY2NjY3LCJ5IjoyODEuNX0seyJ4Ijo0NDYuNjIzNjk3OTE2NjY2NjMsInkiOjQ3NH0seyJ4Ijo0NDYuNjIzNjk3OTE2NjY2NjMsInkiOjU3MX0seyJ4Ijo0NDYuNjIzNjk3OTE2NjY2NjMsInkiOjYxNy41fV0=" marker-end="url(#my-svg_flowchart-elk-pointEnd)"/><path d="M459.367,681.5L459.367,683.167C459.367,684.833,459.367,688.167,459.729,690.305C460.091,692.443,460.815,693.386,461.648,694.219C462.482,695.052,463.424,695.776,493.514,696.138C523.604,696.5,582.841,696.5,612.931,696.862C643.021,697.224,643.964,697.948,644.797,698.781C645.63,699.614,646.354,700.557,646.716,719.112C647.078,737.667,647.078,773.833,647.078,804.333C647.078,834.833,647.078,859.667,647.44,872.555C647.802,885.443,648.526,886.386,649.359,887.219C650.193,888.052,651.135,888.776,655.559,889.138C659.982,889.5,667.885,889.5,672.309,889.862C676.732,890.224,677.675,890.948,678.508,891.781C679.341,892.614,680.065,893.557,680.427,899.029C680.789,904.5,680.789,914.5,680.789,926.583C680.789,938.667,680.789,952.833,680.789,959.917L680.789,967" id="L_Document_Notification_0_0" class="edge-thickness-normal edge-pattern-dotted edge-thickness-normal edge-pattern-solid flowchart-link" style=";" data-edge="true" data-et="edge" data-id="L_Document_Notification_0_0" data-points="W3sieCI6NDU5LjM2NzE4NzUsInkiOjY4MS41fSx7IngiOjQ1OS4zNjcxODc1LCJ5Ijo2OTYuNX0seyJ4Ijo2NDcuMDc4MTI1LCJ5Ijo2OTYuNX0seyJ4Ijo2NDcuMDc4MTI1LCJ5Ijo4MTB9LHsieCI6NjQ3LjA3ODEyNSwieSI6ODg5LjV9LHsieCI6NjgwLjc4OTA2MjUsInkiOjg4OS41fSx7IngiOjY4MC43ODkwNjI1LCJ5Ijo5MjQuNX0seyJ4Ijo2ODAuNzg5MDYyNSwieSI6OTcxfV0=" marker-end="url(#my-svg_flowchart-elk-pointEnd)"/><path d="M375.608,360.5L375.608,362.167C375.608,363.833,375.608,367.167,375.97,369.305C376.332,371.443,377.056,372.386,377.889,373.219C378.722,374.052,379.665,374.776,381.803,375.138C383.941,375.5,387.275,375.5,388.941,391.917C390.608,408.333,390.608,441.167,390.608,459.667C390.608,478.167,390.608,482.333,390.246,484.888C389.884,487.443,389.16,488.386,388.327,489.219C387.494,490.052,386.551,490.776,352.997,491.138C319.444,491.5,253.279,491.5,220.197,504.75C187.115,518,187.115,544.5,187.115,564.833C187.115,585.167,187.115,599.333,187.115,606.417L187.115,613.5" id="L_Subscription_Team_0_0" class="edge-thickness-normal edge-pattern-dotted edge-thickness-normal edge-pattern-solid flowchart-link" style=";" data-edge="true" data-et="edge" data-id="L_Subscription_Team_0_0" data-points="W3sieCI6Mzc1LjYwODA3MjkxNjY2NjcsInkiOjM2MC41fSx7IngiOjM3NS42MDgwNzI5MTY2NjY3LCJ5IjozNzUuNX0seyJ4IjozOTAuNjA4MDcyOTE2NjY2NywieSI6Mzc1LjV9LHsieCI6MzkwLjYwODA3MjkxNjY2NjYzLCJ5Ijo0NzR9LHsieCI6MzkwLjYwODA3MjkxNjY2NjYzLCJ5Ijo0OTEuNX0seyJ4IjoxODcuMTE0NTgzMzMzMzMzMzEsInkiOjQ5MS41fSx7IngiOjE4Ny4xMTQ1ODMzMzMzMzMzNCwieSI6NTcxfSx7IngiOjE4Ny4xMTQ1ODMzMzMzMzMzNCwieSI6NjE3LjV9XQ==" marker-end="url(#my-svg_flowchart-elk-pointEnd)"/><path d="M165.871,76L165.871,78.083C165.871,80.167,165.871,84.333,166.233,86.888C166.595,89.443,167.319,90.386,168.152,91.219C168.985,92.052,169.928,92.776,206.282,93.138C242.637,93.5,314.402,93.5,350.757,93.862C387.111,94.224,388.054,94.948,388.887,95.781C389.72,96.614,390.444,97.557,390.806,100.112C391.168,102.667,391.168,106.833,391.168,116.667C391.168,126.5,391.168,142,391.168,149.75L391.168,157.5" id="L_User_Invoice_0_0" class="edge-thickness-normal edge-pattern-solid edge-thickness-normal edge-pattern-solid flowchart-link" style=";" data-edge="true" data-et="edge" data-id="L_User_Invoice_0_0" data-points="W3sieCI6MTY1Ljg3MDgzMzMzMzMzMzQsInkiOjc2fSx7IngiOjE2NS44NzA4MzMzMzMzMzM0LCJ5Ijo5My41fSx7IngiOjM5MS4xNjc5Njg3NSwieSI6OTMuNX0seyJ4IjozOTEuMTY3OTY4NzUsInkiOjExMX0seyJ4IjozOTEuMTY3OTY4NzUsInkiOjE1Ny41fV0="/><path d="M143.115,76L143.115,112.083C143.115,148.167,143.115,220.333,143.115,294.75C143.115,369.167,143.115,445.833,143.115,488.5C143.115,531.167,143.115,539.833,143.477,544.638C143.838,549.443,144.562,550.386,145.396,551.219C146.229,552.052,147.172,552.776,188.066,553.138C228.96,553.5,309.805,553.5,350.699,553.862C391.593,554.224,392.535,554.948,393.369,555.781C394.202,556.614,394.926,557.557,395.288,560.112C395.65,562.667,395.65,566.833,395.65,576.667C395.65,586.5,395.65,602,395.65,609.75L395.65,617.5" id="L_User_Document_0_0" class="edge-thickness-normal edge-pattern-solid edge-thickness-normal edge-pattern-solid flowchart-link" style=";" data-edge="true" data-et="edge" data-id="L_User_Document_0_0" data-points="W3sieCI6MTQzLjExNDU4MzMzMzMzMzM3LCJ5Ijo3Nn0seyJ4IjoxNDMuMTE0NTgzMzMzMzMzMzcsInkiOjI5Mi41fSx7IngiOjE0My4xMTQ1ODMzMzMzMzMzNywieSI6NTIyLjV9LHsieCI6MTQzLjExNDU4MzMzMzMzMzM3LCJ5Ijo1NTMuNX0seyJ4IjozOTUuNjQ5NzM5NTgzMzMzMzcsInkiOjU1My41fSx7IngiOjM5NS42NDk3Mzk1ODMzMzMzNywieSI6NTcxfSx7IngiOjM5NS42NDk3Mzk1ODMzMzMzNywieSI6NjE3LjV9XQ=="/><path d="M97.602,76L97.602,78.083C97.602,80.167,97.602,84.333,97.24,86.888C96.878,89.443,96.154,90.386,95.321,91.219C94.488,92.052,93.545,92.776,80.473,93.138C67.401,93.5,42.201,93.5,29.129,93.862C16.057,94.224,15.114,94.948,14.281,95.781C13.448,96.614,12.724,97.557,12.362,130.362C12,163.167,12,227.833,12,298.5C12,369.167,12,445.833,12,512.167C12,578.5,12,634.5,12,690.5C12,746.5,12,802.5,12,837.75C12,873,12,887.5,12.362,895.221C12.724,902.943,13.448,903.886,14.281,904.719C15.114,905.552,16.057,906.276,119.695,906.638C223.333,907,429.667,907,533.305,907.362C636.943,907.724,637.886,908.448,638.719,909.281C639.552,910.114,640.276,911.057,640.638,913.612C641,916.167,641,920.333,641,930.167C641,940,641,955.5,641,963.25L641,971" id="L_User_Notification_0_0" class="edge-thickness-normal edge-pattern-solid edge-thickness-normal edge-pattern-solid flowchart-link" style=";" data-edge="true" data-et="edge" data-id="L_User_Notification_0_0" data-points="W3sieCI6OTcuNjAyMDgzMzMzMzMzMzgsInkiOjc2fSx7IngiOjk3LjYwMjA4MzMzMzMzMzM4LCJ5Ijo5My41fSx7IngiOjEyLCJ5Ijo5My41fSx7IngiOjEyLCJ5IjoyOTIuNX0seyJ4IjoxMiwieSI6NTIyLjV9LHsieCI6MTIsInkiOjY5MC41fSx7IngiOjEyLCJ5Ijo4NTguNX0seyJ4IjoxMiwieSI6OTA3fSx7IngiOjY0MSwieSI6OTA3fSx7IngiOjY0MSwieSI6OTI0LjV9LHsieCI6NjQxLCJ5Ijo5NzF9XQ=="/><path d="M120.358,76L120.358,78.083C120.358,80.167,120.358,84.333,120.358,87.25C120.358,90.167,120.358,91.833,119.525,92.667C118.692,93.5,117.025,93.5,116.391,93.5C115.756,93.5,116.154,93.5,115.52,93.5C114.885,93.5,113.219,93.5,112.385,94.333C111.552,95.167,111.552,96.833,111.552,130C111.552,163.167,111.552,227.833,111.552,298.5C111.552,369.167,111.552,445.833,111.552,492.25C111.552,538.667,111.552,554.833,111.552,586.333C111.552,617.833,111.552,664.667,111.552,688.083L111.552,711.5" id="L_User_TeamMembership_0_0" class="edge-thickness-normal edge-pattern-solid edge-thickness-normal edge-pattern-solid flowchart-link" style=";" data-edge="true" data-et="edge" data-id="L_User_TeamMembership_0_0" data-points="W3sieCI6MTIwLjM1ODMzMzMzMzMzMzM1LCJ5Ijo3Nn0seyJ4IjoxMjAuMzU4MzMzMzMzMzMzMzUsInkiOjkzLjV9LHsieCI6MTExLjU1MjA4MzMzMzMzMzM3LCJ5Ijo5My41fSx7IngiOjExMS41NTIwODMzMzMzMzMzNywieSI6MjkyLjV9LHsieCI6MTExLjU1MjA4MzMzMzMzMzM3LCJ5Ijo1MjIuNX0seyJ4IjoxMTEuNTUyMDgzMzMzMzMzMzcsInkiOjU3MX0seyJ4IjoxMTEuNTUyMDgzMzMzMzMzMzcsInkiOjcxMS41fV0="/></g><g class="edgeLabels"><g><rect class="background" style="stroke: none"/></g><g><rect class="background" style="stroke: none"/></g><g><rect class="background" style="stroke: none"/></g><g><rect class="background" style="stroke: none"/></g><g><rect class="background" style="stroke: none"/></g><g><rect class="background" style="stroke: none"/></g><g><rect class="background" style="stroke: none"/></g><g><rect class="background" style="stroke: none"/></g><g><rect class="background" style="stroke: none"/></g><g><rect class="background" style="stroke: none"/></g><g><rect class="background" style="stroke: none"/></g><g><rect class="background" style="stroke: none"/></g><g class="edgeLabel"><g class="label" data-id="L_Invoice_Subscription_0_0" transform="translate(0, 0)"><text y="-10.1"><tspan class="text-outer-tspan" x="0" y="-0.1em" dy="1.1em"/></text></g></g><g class="edgeLabel"><g class="label" data-id="L_Invoice_LineItem_0_0" transform="translate(0, 0)"><text y="-10.1"><tspan class="text-outer-tspan" x="0" y="-0.1em" dy="1.1em"/></text></g></g><g class="edgeLabel"><g class="label" data-id="L_Subscription_Plan_0_0" transform="translate(0, 0)"><text y="-10.1"><tspan class="text-outer-tspan" x="0" y="-0.1em" dy="1.1em"/></text></g></g><g class="edgeLabel"><g class="label" data-id="L_Invoice_Payment_0_0" transform="translate(0, 0)"><text y="-10.1"><tspan class="text-outer-tspan" x="0" y="-0.1em" dy="1.1em"/></text></g></g><g class="edgeLabel"><g class="label" data-id="L_Document_Template_0_0" transform="translate(0, 0)"><text y="-10.1"><tspan class="text-outer-tspan" x="0" y="-0.1em" dy="1.1em"/></text></g></g><g class="edgeLabel"><g class="label" data-id="L_Document_Signature_0_0" transform="translate(0, 0)"><text y="-10.1"><tspan class="text-outer-tspan" x="0" y="-0.1em" dy="1.1em"/></text></g></g><g class="edgeLabel"><g class="label" data-id="L_Notification_NotifPref_0_0" transform="translate(0, 0)"><text y="-10.1"><tspan class="text-outer-tspan" x="0" y="-0.1em" dy="1.1em"/></text></g></g><g class="edgeLabel"><g class="label" data-id="L_Team_TeamMembership_0_0" transform="translate(0, 0)"><text y="-10.1"><tspan class="text-outer-tspan" x="0" y="-0.1em" dy="1.1em"/></text></g></g><g class="edgeLabel" transform="translate(720.4296875, 690.5)"><g class="label" data-id="L_Invoice_Notification_0_0" transform="translate(-25.3515625, -13.5)"><g><rect class="background" style="" x="-2" y="0" width="50.703125" height="27"/><text y="-10.1" style=""><tspan class="text-outer-tspan" x="0" y="-0.1em" dy="1.1em"><tspan font-style="normal" class="text-inner-tspan" font-weight="normal">weak</tspan></tspan></text></g></g></g><g class="edgeLabel" transform="translate(446.6236979166667, 522.5)"><g class="label" data-id="L_Invoice_Document_0_0" transform="translate(-22, -13.5)"><g><rect class="background" style="" x="-2" y="0" width="44" height="27"/><text y="-10.1" style=""><tspan class="text-outer-tspan" x="0" y="-0.1em" dy="1.1em"><tspan font-style="normal" class="text-inner-tspan" font-weight="normal">PDF</tspan></tspan></text></g></g></g><g class="edgeLabel" transform="translate(646.9296875, 858.5)"><g class="label" data-id="L_Document_Notification_0_0" transform="translate(-35.3515625, -13.5)"><g><rect class="background" style="" x="-2" y="0" width="70.703125" height="27"/><text y="-10.1" style=""><tspan class="text-outer-tspan" x="0" y="-0.1em" dy="1.1em"><tspan font-style="normal" class="text-inner-tspan" font-weight="normal">triggers</tspan></tspan></text></g></g></g><g class="edgeLabel" transform="translate(186.96614583333337, 522.5)"><g class="label" data-id="L_Subscription_Team_0_0" transform="translate(-25.3515625, -13.5)"><g><rect class="background" style="" x="-2" y="0" width="50.703125" height="27"/><text y="-10.1" style=""><tspan class="text-outer-tspan" x="0" y="-0.1em" dy="1.1em"><tspan font-style="normal" class="text-inner-tspan" font-weight="normal">weak</tspan></tspan></text></g></g></g><g class="edgeLabel"><g class="label" data-id="L_User_Invoice_0_0" transform="translate(0, 0)"><text y="-10.1"><tspan class="text-outer-tspan" x="0" y="-0.1em" dy="1.1em"/></text></g></g><g class="edgeLabel"><g class="label" data-id="L_User_Document_0_0" transform="translate(0, 0)"><text y="-10.1"><tspan class="text-outer-tspan" x="0" y="-0.1em" dy="1.1em"/></text></g></g><g class="edgeLabel"><g class="label" data-id="L_User_Notification_0_0" transform="translate(0, 0)"><text y="-10.1"><tspan class="text-outer-tspan" x="0" y="-0.1em" dy="1.1em"/></text></g></g><g class="edgeLabel"><g class="label" data-id="L_User_TeamMembership_0_0" transform="translate(0, 0)"><text y="-10.1"><tspan class="text-outer-tspan" x="0" y="-0.1em" dy="1.1em"/></text></g></g></g></svg>