<svg id="my-svg" width="100%" xmlns="http://www.w3.org/2000/svg" xmlns:xlink="http://www.w3.org/1999/xlink" class="flowchart" style="max-width: 730.625px; background-color: transparent;" viewBox="4 4 730.625 644.421875" role="graphics-document document" aria-roledescription="flowchart-elk"><style>#my-svg{font-family:Helvetica,Arial,sans-serif;font-size:16px;fill:#333;}@keyframes edge-animation-frame{from{stroke-dashoffset:0;}}@keyframes dash{to{stroke-dashoffset:0;}}#my-svg .edge-animation-slow{stroke-dasharray:9,5!important;stroke-dashoffset:900;animation:dash 50s linear infinite;stroke-linecap:round;}#my-svg .edge-animation-fast{stroke-dasharray:9,5!important;stroke-dashoffset:900;animation:dash 20s linear infinite;stroke-linecap:round;}#my-svg .error-icon{fill:#552222;}#my-svg .error-text{fill:#552222;stroke:#552222;}#my-svg .edge-thickness-normal{stroke-width:1px;}#my-svg .edge-thickness-thick{stroke-width:3.5px;}#my-svg .edge-pattern-solid{stroke-dasharray:0;}#my-svg .edge-thickness-invisible{stroke-width:0;fill:none;}#my-svg .edge-pattern-dashed{stroke-dasharray:3;}#my-svg .edge-pattern-dotted{stroke-dasharray:2;}#my-svg .marker{fill:#333333;stroke:#333333;}#my-svg .marker.cross{stroke:#333333;}#my-svg svg{font-family:Helvetica,Arial,sans-serif;font-size:16px;}#my-svg p{margin:0;}#my-svg .label{font-family:Helvetica,Arial,sans-serif;color:#333;}#my-svg .cluster-label text{fill:#333;}#my-svg .cluster-label span{color:#333;}#my-svg .cluster-label span p{background-color:transparent;}#my-svg .label text,#my-svg span{fill:#333;color:#333;}#my-svg .node rect,#my-svg .node circle,#my-svg .node ellipse,#my-svg .node polygon,#my-svg .node path{fill:#ECECFF;stroke:#9370DB;stroke-width:1px;}#my-svg .rough-node .label text,#my-svg .node .label text,#my-svg .image-shape .label,#my-svg .icon-shape .label{text-anchor:middle;}#my-svg .node .katex path{fill:#000;stroke:#000;stroke-width:1px;}#my-svg .rough-node .label,#my-svg .node .label,#my-svg .image-shape .label,#my-svg .icon-shape .label{text-align:center;}#my-svg .node.clickable{cursor:pointer;}#my-svg .root .anchor path{fill:#333333!important;stroke-width:0;stroke:#333333;}#my-svg .arrowheadPath{fill:#333333;}#my-svg .edgePath .path{stroke:#333333;stroke-width:2.0px;}#my-svg .flowchart-link{stroke:#333333;fill:none;}#my-svg .edgeLabel{background-color:rgba(232,232,232, 0.8);text-align:center;}#my-svg .edgeLabel p{background-color:rgba(232,232,232, 0.8);}#my-svg .edgeLabel rect{opacity:0.5;background-color:rgba(232,232,232, 0.8);fill:rgba(232,232,232, 0.8);}#my-svg .labelBkg{background-color:rgba(232, 232, 232, 0.5);}#my-svg .cluster rect{fill:#ffffde;stroke:#aaaa33;stroke-width:1px;}#my-svg .cluster text{fill:#333;}#my-svg .cluster span{color:#333;}#my-svg div.mermaidTooltip{position:absolute;text-align:center;max-width:200px;padding:2px;font-family:Helvetica,Arial,sans-serif;font-size:12px;background:hsl(80, 100%, 96.2745098039%);border:1px solid #aaaa33;border-radius:2px;pointer-events:none;z-index:100;}#my-svg .flowchartTitleText{text-anchor:middle;font-size:18px;fill:#333;}#my-svg rect.text{fill:none;stroke-width:0;}#my-svg .icon-shape,#my-svg .image-shape{background-color:rgba(232,232,232, 0.8);text-align:center;}#my-svg .icon-shape p,#my-svg .image-shape p{background-color:rgba(232,232,232, 0.8);padding:2px;}#my-svg .icon-shape rect,#my-svg .image-shape rect{opacity:0.5;background-color:rgba(232,232,232, 0.8);fill:rgba(232,232,232, 0.8);}#my-svg .label-icon{display:inline-block;height:1em;overflow:visible;vertical-align:-0.125em;}#my-svg .node .label-icon path{fill:currentColor;stroke:revert;stroke-width:revert;}#my-svg .node rect,#my-svg .node polygon,#my-svg .node circle,#my-svg .node ellipse,#my-svg .node path{stroke:#24292e;}#my-svg text{font-size:20px!important;}#my-svg :root{--mermaid-font-family:Helvetica,Arial,sans-serif;}</style><g><marker id="my-svg_flowchart-elk-pointEnd" class="marker flowchart-elk" viewBox="0 0 10 10" refX="5" refY="5" markerUnits="userSpaceOnUse" markerWidth="8" markerHeight="8" orient="auto"><path d="M 0 0 L 10 5 L 0 10 z" class="arrowMarkerPath" style="stroke-width: 1; stroke-dasharray: 1, 0;"/></marker><marker id="my-svg_flowchart-elk-pointStart" class="marker flowchart-elk" viewBox="0 0 10 10" refX="4.5" refY="5" markerUnits="userSpaceOnUse" markerWidth="8" markerHeight="8" orient="auto"><path d="M 0 5 L 10 10 L 10 0 z" class="arrowMarkerPath" style="stroke-width: 1; stroke-dasharray: 1, 0;"/></marker><marker id="my-svg_flowchart-elk-circleEnd" class="marker flowchart-elk" viewBox="0 0 10 10" refX="11" refY="5" markerUnits="userSpaceOnUse" markerWidth="11" markerHeight="11" orient="auto"><circle cx="5" cy="5" r="5" class="arrowMarkerPath" style="stroke-width: 1; stroke-dasharray: 1, 0;"/></marker><marker id="my-svg_flowchart-elk-circleStart" class="marker flowchart-elk" viewBox="0 0 10 10" refX="-1" refY="5" markerUnits="userSpaceOnUse" markerWidth="11" markerHeight="11" orient="auto"><circle cx="5" cy="5" r="5" class="arrowMarkerPath" style="stroke-width: 1; stroke-dasharray: 1, 0;"/></marker><marker id="my-svg_flowchart-elk-crossEnd" class="marker cross flowchart-elk" viewBox="0 0 11 11" refX="12" refY="5.2" markerUnits="userSpaceOnUse" markerWidth="11" markerHeight="11" orient="auto"><path d="M 1,1 l 9,9 M 10,1 l -9,9" class="arrowMarkerPath" style="stroke-width: 2; stroke-dasharray: 1, 0;"/></marker><marker id="my-svg_flowchart-elk-crossStart" class="marker cross flowchart-elk" viewBox="0 0 11 11" refX="-1" refY="5.2" markerUnits="userSpaceOnUse" markerWidth="11" markerHeight="11" orient="auto"><path d="M 1,1 l 9,9 M 10,1 l -9,9" class="arrowMarkerPath" style="stroke-width: 2; stroke-dasharray: 1, 0;"/></marker></g><g class="subgraphs"/><g class="nodes"><g class="node default" id="flowchart-PUSH-0" transform="translate(272.8463541666667, 44)"><rect class="basic label-container" style="" x="-68.0234375" y="-32" width="136.046875" height="64"/><g class="label" style="" transform="translate(-28.0234375, -12)"><rect/><foreignObject width="56.046875" height="24"><div xmlns="http://www.w3.org/1999/xhtml" style="display: table-cell; white-space: nowrap; line-height: 1.5; max-width: 200px; text-align: center;"><span class="nodeLabel"><p>git push</p></span></div></foreignObject></g></g><g class="node default" id="flowchart-L1-1" transform="translate(250.171875, 143)"><rect class="basic label-container" style="" x="-85.6640625" y="-32" width="171.328125" height="64"/><g class="label" style="" transform="translate(-45.6640625, -12)"><rect/><foreignObject width="91.328125" height="24"><div xmlns="http://www.w3.org/1999/xhtml" style="display: table-cell; white-space: nowrap; line-height: 1.5; max-width: 200px; text-align: center;"><span class="nodeLabel"><p>Engine Tests</p></span></div></foreignObject></g></g><g class="node default" id="flowchart-L2-3" transform="translate(585.5859375, 143)"><rect class="basic label-container" style="" x="-98.5625" y="-32" width="197.125" height="64"/><g class="label" style="" transform="translate(-58.5625, -12)"><rect/><foreignObject width="117.125" height="24"><div xmlns="http://www.w3.org/1999/xhtml" style="display: table-cell; white-space: nowrap; line-height: 1.5; max-width: 200px; text-align: center;"><span class="nodeLabel"><p>Integration Tests</p></span></div></foreignObject></g></g><g class="node default" id="flowchart-B-5" transform="translate(72.4609375, 242)"><rect class="basic label-container" style="" x="-60.4609375" y="-32" width="120.921875" height="64"/><g class="label" style="" transform="translate(-20.4609375, -12)"><rect/><foreignObject width="40.921875" height="24"><div xmlns="http://www.w3.org/1999/xhtml" style="display: table-cell; white-space: nowrap; line-height: 1.5; max-width: 200px; text-align: center;"><span class="nodeLabel"><p>billing</p></span></div></foreignObject></g></g><g class="node default" id="flowchart-N-7" transform="translate(250.171875, 242)"><rect class="basic label-container" style="" x="-82.25" y="-32" width="164.5" height="64"/><g class="label" style="" transform="translate(-42.25, -12)"><rect/><foreignObject width="84.5" height="24"><div xmlns="http://www.w3.org/1999/xhtml" style="display: table-cell; white-space: nowrap; line-height: 1.5; max-width: 200px; text-align: center;"><span class="nodeLabel"><p>notifications</p></span></div></foreignObject></g></g><g class="node default" id="flowchart-AU-9" transform="translate(422.9921875, 242)"><rect class="basic label-container" style="" x="-55.5703125" y="-32" width="111.140625" height="64"/><g class="label" style="" transform="translate(-15.5703125, -12)"><rect/><foreignObject width="31.140625" height="24"><div xmlns="http://www.w3.org/1999/xhtml" style="display: table-cell; white-space: nowrap; line-height: 1.5; max-width: 200px; text-align: center;"><span class="nodeLabel"><p>auth</p></span></div></foreignObject></g></g><g class="node default" id="flowchart-PASS1-11" transform="translate(104.69140625, 390.9609375)"><polygon points="64.4609375,0 128.921875,-64.4609375 64.4609375,-128.921875 0,-64.4609375" class="label-container" transform="translate(-63.9609375, 64.4609375)"/><g class="label" style="" transform="translate(-32.4609375, -12)"><rect/><foreignObject width="64.921875" height="24"><div xmlns="http://www.w3.org/1999/xhtml" style="display: table-cell; white-space: nowrap; line-height: 1.5; max-width: 200px; text-align: center;"><span class="nodeLabel"><p>All pass?</p></span></div></foreignObject></g></g><g class="node default" id="flowchart-HOST-17" transform="translate(585.5859375, 242)"><rect class="basic label-container" style="" x="-72.0234375" y="-32" width="144.046875" height="64"/><g class="label" style="" transform="translate(-32.0234375, -12)"><rect/><foreignObject width="64.046875" height="24"><div xmlns="http://www.w3.org/1999/xhtml" style="display: table-cell; white-space: nowrap; line-height: 1.5; max-width: 200px; text-align: center;"><span class="nodeLabel"><p>Host app</p></span></div></foreignObject></g></g><g class="node default" id="flowchart-PASS2-19" transform="translate(585.5859375, 394.3697916666667)"><polygon points="54.234375,0 108.46875,-54.234375 54.234375,-108.46875 0,-54.234375" class="label-container" transform="translate(-53.734375, 54.234375)"/><g class="label" style="" transform="translate(-22.234375, -12)"><rect/><foreignObject width="44.46875" height="24"><div xmlns="http://www.w3.org/1999/xhtml" style="display: table-cell; white-space: nowrap; line-height: 1.5; max-width: 200px; text-align: center;"><span class="nodeLabel"><p>Pass?</p></span></div></foreignObject></g></g><g class="node default" id="flowchart-OK-21" transform="translate(115.81119791666667, 584.421875)"><rect class="basic label-container" style="" x="-97.8203125" y="-32" width="195.640625" height="64"/><g class="label" style="" transform="translate(-57.8203125, -12)"><rect/><foreignObject width="115.640625" height="24"><div xmlns="http://www.w3.org/1999/xhtml" style="display: table-cell; white-space: nowrap; line-height: 1.5; max-width: 200px; text-align: center;"><span class="nodeLabel"><p>Boundaries hold</p></span></div></foreignObject></g></g><g class="node default" id="flowchart-FIX1-25" transform="translate(338.8893229166667, 596.421875)"><rect class="basic label-container" style="" x="-90.2578125" y="-44" width="180.515625" height="88"/><g class="label" style="" transform="translate(-50.2578125, -24)"><rect/><foreignObject width="100.515625" height="48"><div xmlns="http://www.w3.org/1999/xhtml" style="display: table-cell; white-space: nowrap; line-height: 1.5; max-width: 200px; text-align: center;"><span class="nodeLabel"><p>Engine bug or<br />boundary leak</p></span></div></foreignObject></g></g><g class="node default" id="flowchart-FIX2-27" transform="translate(618.1484375, 584.421875)"><rect class="basic label-container" style="" x="-108.4765625" y="-32" width="216.953125" height="64"/><g class="label" style="" transform="translate(-68.4765625, -12)"><rect/><foreignObject width="136.953125" height="24"><div xmlns="http://www.w3.org/1999/xhtml" style="display: table-cell; white-space: nowrap; line-height: 1.5; max-width: 200px; text-align: center;"><span class="nodeLabel"><p>Cross-engine issue</p></span></div></foreignObject></g></g></g><g class="edges edgePaths"><path d="M250.172,76L250.172,107" id="L_PUSH_L1_0_0" class="edge-thickness-normal edge-pattern-solid edge-thickness-normal edge-pattern-solid flowchart-link" style=";" data-edge="true" data-et="edge" data-id="L_PUSH_L1_0_0" data-points="W3sieCI6MjUwLjE3MTg3NSwieSI6NzZ9LHsieCI6MjUwLjE3MTg3NSwieSI6MTExfV0=" marker-end="url(#my-svg_flowchart-elk-pointEnd)"/><path d="M295.521,76L295.521,78.083C295.521,80.167,295.521,84.333,295.883,86.888C296.245,89.443,296.969,90.386,297.802,91.219C298.635,92.052,299.578,92.776,346.727,93.138C393.876,93.5,487.231,93.5,534.38,93.862C581.529,94.224,582.472,94.948,583.305,95.781C584.138,96.614,584.862,97.557,585.224,99.445C585.586,101.333,585.586,104.167,585.586,105.583L585.586,107" id="L_PUSH_L2_0_0" class="edge-thickness-normal edge-pattern-solid edge-thickness-normal edge-pattern-solid flowchart-link" style=";" data-edge="true" data-et="edge" data-id="L_PUSH_L2_0_0" data-points="W3sieCI6Mjk1LjUyMDgzMzMzMzMzMzM3LCJ5Ijo3Nn0seyJ4IjoyOTUuNTIwODMzMzMzMzMzMzcsInkiOjkzLjV9LHsieCI6NTg1LjU4NTkzNzUsInkiOjkzLjV9LHsieCI6NTg1LjU4NTkzNzUsInkiOjExMX1d" marker-end="url(#my-svg_flowchart-elk-pointEnd)"/><path d="M207.34,175L207.34,177.083C207.34,179.167,207.34,183.333,206.978,185.888C206.616,188.443,205.892,189.386,205.059,190.219C204.225,191.052,203.283,191.776,181.998,192.138C160.714,192.5,119.087,192.5,97.803,192.862C76.518,193.224,75.575,193.948,74.742,194.781C73.909,195.614,73.185,196.557,72.823,198.445C72.461,200.333,72.461,203.167,72.461,204.583L72.461,206" id="L_L1_B_0_0" class="edge-thickness-normal edge-pattern-solid edge-thickness-normal edge-pattern-solid flowchart-link" style=";" data-edge="true" data-et="edge" data-id="L_L1_B_0_0" data-points="W3sieCI6MjA3LjMzOTg0Mzc1LCJ5IjoxNzV9LHsieCI6MjA3LjMzOTg0Mzc1LCJ5IjoxOTIuNX0seyJ4Ijo3Mi40NjA5Mzc1LCJ5IjoxOTIuNX0seyJ4Ijo3Mi40NjA5Mzc1LCJ5IjoyMTB9XQ==" marker-end="url(#my-svg_flowchart-elk-pointEnd)"/><path d="M250.172,175L250.172,206" id="L_L1_N_0_0" class="edge-thickness-normal edge-pattern-solid edge-thickness-normal edge-pattern-solid flowchart-link" style=";" data-edge="true" data-et="edge" data-id="L_L1_N_0_0" data-points="W3sieCI6MjUwLjE3MTg3NSwieSI6MTc1fSx7IngiOjI1MC4xNzE4NzUsInkiOjIxMH1d" marker-end="url(#my-svg_flowchart-elk-pointEnd)"/><path d="M293.004,175L293.004,177.083C293.004,179.167,293.004,183.333,293.366,185.888C293.728,188.443,294.452,189.386,295.285,190.219C296.118,191.052,297.061,191.776,317.531,192.138C338,192.5,377.996,192.5,398.466,192.862C418.935,193.224,419.878,193.948,420.711,194.781C421.544,195.614,422.268,196.557,422.63,198.445C422.992,200.333,422.992,203.167,422.992,204.583L422.992,206" id="L_L1_AU_0_0" class="edge-thickness-normal edge-pattern-solid edge-thickness-normal edge-pattern-solid flowchart-link" style=";" data-edge="true" data-et="edge" data-id="L_L1_AU_0_0" data-points="W3sieCI6MjkzLjAwMzkwNjI1LCJ5IjoxNzV9LHsieCI6MjkzLjAwMzkwNjI1LCJ5IjoxOTIuNX0seyJ4Ijo0MjIuOTkyMTg3NSwieSI6MTkyLjV9LHsieCI6NDIyLjk5MjE4NzUsInkiOjIxMH1d" marker-end="url(#my-svg_flowchart-elk-pointEnd)"/><path d="M72.461,274L72.461,282.75C72.461,291.5,72.461,309,74.031,320.821C75.602,332.642,78.742,338.784,80.313,341.855L81.883,344.926" id="L_B_PASS1_0_0" class="edge-thickness-normal edge-pattern-solid edge-thickness-normal edge-pattern-solid flowchart-link" style=";" data-edge="true" data-et="edge" data-id="L_B_PASS1_0_0" data-points="W3sieCI6NzIuNDYwOTM3NSwieSI6Mjc0fSx7IngiOjcyLjQ2MDkzNzUsInkiOjMyNi41fSx7IngiOjgzLjcwNDQyNzA4MzMzMzMzLCJ5IjozNDguNDg2OTc5MTY2NjY2N31d" marker-end="url(#my-svg_flowchart-elk-pointEnd)"/><path d="M250.172,274L250.172,276.083C250.172,278.167,250.172,282.333,249.81,284.888C249.448,287.443,248.724,288.386,247.891,289.219C247.057,290.052,246.115,290.776,223.063,291.138C200.012,291.5,154.852,291.5,131.8,291.862C108.749,292.224,107.806,292.948,106.972,293.781C106.139,294.614,105.415,295.557,105.053,300.362C104.691,305.167,104.691,313.833,104.691,318.167L104.691,322.5" id="L_N_PASS1_0_0" class="edge-thickness-normal edge-pattern-solid edge-thickness-normal edge-pattern-solid flowchart-link" style=";" data-edge="true" data-et="edge" data-id="L_N_PASS1_0_0" data-points="W3sieCI6MjUwLjE3MTg3NSwieSI6Mjc0fSx7IngiOjI1MC4xNzE4NzUsInkiOjI5MS41fSx7IngiOjEwNC42OTE0MDYyNSwieSI6MjkxLjV9LHsieCI6MTA0LjY5MTQwNjI1LCJ5IjozMjYuNX1d" marker-end="url(#my-svg_flowchart-elk-pointEnd)"/><path d="M422.992,274L422.992,279C422.992,284,422.992,294,422.63,299.471C422.268,304.943,421.544,305.886,420.711,306.719C419.878,307.552,418.935,308.276,372.452,308.638C325.969,309,233.945,309,187.462,309.362C140.979,309.724,140.036,310.448,139.203,311.281C138.37,312.114,137.646,313.057,137.284,315.612C136.922,318.167,136.922,322.333,135.496,327.477C134.07,332.62,131.219,338.741,129.793,341.801L128.368,344.861" id="L_AU_PASS1_0_0" class="edge-thickness-normal edge-pattern-solid edge-thickness-normal edge-pattern-solid flowchart-link" style=";" data-edge="true" data-et="edge" data-id="L_AU_PASS1_0_0" data-points="W3sieCI6NDIyLjk5MjE4NzUsInkiOjI3NH0seyJ4Ijo0MjIuOTkyMTg3NSwieSI6MzA5fSx7IngiOjEzNi45MjE4NzUsInkiOjMwOX0seyJ4IjoxMzYuOTIxODc1LCJ5IjozMjYuNX0seyJ4IjoxMjYuNjc4Mzg1NDE2NjY2NjcsInkiOjM0OC40ODY5NzkxNjY2NjY3fV0=" marker-end="url(#my-svg_flowchart-elk-pointEnd)"/><path d="M585.586,175L585.586,206" id="L_L2_HOST_0_0" class="edge-thickness-normal edge-pattern-solid edge-thickness-normal edge-pattern-solid flowchart-link" style=";" data-edge="true" data-et="edge" data-id="L_L2_HOST_0_0" data-points="W3sieCI6NTg1LjU4NTkzNzUsInkiOjE3NX0seyJ4Ijo1ODUuNTg1OTM3NSwieSI6MjEwfV0=" marker-end="url(#my-svg_flowchart-elk-pointEnd)"/><path d="M585.586,274L585.586,336.135" id="L_HOST_PASS2_0_0" class="edge-thickness-normal edge-pattern-solid edge-thickness-normal edge-pattern-solid flowchart-link" style=";" data-edge="true" data-et="edge" data-id="L_HOST_PASS2_0_0" data-points="W3sieCI6NTg1LjU4NTkzNzUsInkiOjI3NH0seyJ4Ijo1ODUuNTg1OTM3NSwieSI6MzQwLjEzNTQxNjY2NjY2Njd9XQ==" marker-end="url(#my-svg_flowchart-elk-pointEnd)"/><path d="M89.076,439.807L88.098,442.409C87.119,445.012,85.162,450.217,84.183,468.319C83.204,486.422,83.204,517.422,83.204,532.922L83.204,548.422" id="L_PASS1_OK_0_0" class="edge-thickness-normal edge-pattern-solid edge-thickness-normal edge-pattern-solid flowchart-link" style=";" data-edge="true" data-et="edge" data-id="L_PASS1_OK_0_0" data-points="W3sieCI6ODkuMDc2MTcxODc1MDAwMDEsInkiOjQzOS44MDY2NDA2MjQ5OTk5NH0seyJ4Ijo4My4yMDQ0MjcwODMzMzMzMywieSI6NDU1LjQyMTg3NX0seyJ4Ijo4My4yMDQ0MjcwODMzMzMzMywieSI6NTUyLjQyMTg3NX1d" marker-end="url(#my-svg_flowchart-elk-pointEnd)"/><path d="M572.527,435.546L571.691,437.722C570.854,439.898,569.181,444.251,568.344,459.981C567.508,475.71,567.508,502.816,567.146,516.84C566.784,530.865,566.06,531.807,565.227,532.641C564.393,533.474,563.451,534.198,494.798,534.56C426.145,534.922,289.781,534.922,221.128,535.284C152.475,535.646,151.532,536.37,150.699,537.203C149.866,538.036,149.142,538.979,148.78,540.867C148.418,542.755,148.418,545.589,148.418,547.005L148.418,548.422" id="L_PASS2_OK_0_0" class="edge-thickness-normal edge-pattern-solid edge-thickness-normal edge-pattern-solid flowchart-link" style=";" data-edge="true" data-et="edge" data-id="L_PASS2_OK_0_0" data-points="W3sieCI6NTcyLjUyNzM0Mzc0OTk5OTgsInkiOjQzNS41NDU1NzI5MTY2NjY0fSx7IngiOjU2Ny41MDc4MTI1LCJ5Ijo0NDguNjA0MTY2NjY2NjY2N30seyJ4Ijo1NjcuNTA3ODEyNSwieSI6NTM0LjkyMTg3NX0seyJ4IjoxNDguNDE3OTY4NzUsInkiOjUzNC45MjE4NzV9LHsieCI6MTQ4LjQxNzk2ODc1LCJ5Ijo1NTIuNDIxODc1fV0=" marker-end="url(#my-svg_flowchart-elk-pointEnd)"/><path d="M121.307,439.807L122.119,442.409C122.931,445.012,124.554,450.217,125.366,454.903C126.178,459.589,126.178,463.755,126.54,466.31C126.902,468.865,127.626,469.807,128.459,470.641C129.293,471.474,130.236,472.198,164.492,472.56C198.749,472.922,266.319,472.922,300.576,473.284C334.832,473.646,335.775,474.37,336.608,475.203C337.442,476.036,338.165,476.979,338.527,489.2C338.889,501.422,338.889,524.922,338.889,536.672L338.889,548.422" id="L_PASS1_FIX1_0_0" class="edge-thickness-normal edge-pattern-solid edge-thickness-normal edge-pattern-solid flowchart-link" style=";" data-edge="true" data-et="edge" data-id="L_PASS1_FIX1_0_0" data-points="W3sieCI6MTIxLjMwNjY0MDYyNTAwMDAzLCJ5Ijo0MzkuODA2NjQwNjI0OTk5OX0seyJ4IjoxMjYuMTc4Mzg1NDE2NjY2NjYsInkiOjQ1NS40MjE4NzV9LHsieCI6MTI2LjE3ODM4NTQxNjY2NjY2LCJ5Ijo0NzIuOTIxODc1fSx7IngiOjMzOC44ODkzMjI5MTY2NjY3LCJ5Ijo0NzIuOTIxODc1fSx7IngiOjMzOC44ODkzMjI5MTY2NjY3LCJ5Ijo1NTIuNDIxODc1fV0=" marker-end="url(#my-svg_flowchart-elk-pointEnd)"/><path d="M599.645,435.546L600.314,437.722C600.984,439.898,602.324,444.251,602.994,449.647C603.664,455.043,603.664,461.483,604.026,465.174C604.388,468.865,605.112,469.807,605.945,470.641C606.778,471.474,607.721,472.198,608.94,472.56C610.159,472.922,611.654,472.922,612.872,473.284C614.091,473.646,615.034,474.37,615.867,475.203C616.701,476.036,617.425,476.979,617.787,489.2C618.148,501.422,618.148,524.922,618.148,536.672L618.148,548.422" id="L_PASS2_FIX2_0_0" class="edge-thickness-normal edge-pattern-solid edge-thickness-normal edge-pattern-solid flowchart-link" style=";" data-edge="true" data-et="edge" data-id="L_PASS2_FIX2_0_0" data-points="W3sieCI6NTk5LjY0NDUzMTI0OTk5OTksInkiOjQzNS41NDU1NzI5MTY2NjY4fSx7IngiOjYwMy42NjQwNjI1LCJ5Ijo0NDguNjA0MTY2NjY2NjY2N30seyJ4Ijo2MDMuNjY0MDYyNSwieSI6NDcyLjkyMTg3NX0seyJ4Ijo2MTguMTQ4NDM3NSwieSI6NDcyLjkyMTg3NX0seyJ4Ijo2MTguMTQ4NDM3NSwieSI6NTUyLjQyMTg3NX1d" marker-end="url(#my-svg_flowchart-elk-pointEnd)"/></g><g class="edgeLabels"><g><rect class="background" style="stroke: none"/></g><g><rect class="background" style="stroke: none"/></g><g><rect class="background" style="stroke: none"/></g><g><rect class="background" style="stroke: none"/></g><g><rect class="background" style="stroke: none"/></g><g><rect class="background" style="stroke: none"/></g><g><rect class="background" style="stroke: none"/></g><g><rect class="background" style="stroke: none"/></g><g><rect class="background" style="stroke: none"/></g><g><rect class="background" style="stroke: none"/></g><g class="edgeLabel"><g class="label" data-id="L_PUSH_L1_0_0" transform="translate(0, 0)"><text y="-10.1"><tspan class="text-outer-tspan" x="0" y="-0.1em" dy="1.1em"/></text></g></g><g class="edgeLabel"><g class="label" data-id="L_PUSH_L2_0_0" transform="translate(0, 0)"><text y="-10.1"><tspan class="text-outer-tspan" x="0" y="-0.1em" dy="1.1em"/></text></g></g><g class="edgeLabel"><g class="label" data-id="L_L1_B_0_0" transform="translate(0, 0)"><text y="-10.1"><tspan class="text-outer-tspan" x="0" y="-0.1em" dy="1.1em"/></text></g></g><g class="edgeLabel"><g class="label" data-id="L_L1_N_0_0" transform="translate(0, 0)"><text y="-10.1"><tspan class="text-outer-tspan" x="0" y="-0.1em" dy="1.1em"/></text></g></g><g class="edgeLabel"><g class="label" data-id="L_L1_AU_0_0" transform="translate(0, 0)"><text y="-10.1"><tspan class="text-outer-tspan" x="0" y="-0.1em" dy="1.1em"/></text></g></g><g class="edgeLabel"><g class="label" data-id="L_B_PASS1_0_0" transform="translate(0, 0)"><text y="-10.1"><tspan class="text-outer-tspan" x="0" y="-0.1em" dy="1.1em"/></text></g></g><g class="edgeLabel"><g class="label" data-id="L_N_PASS1_0_0" transform="translate(0, 0)"><text y="-10.1"><tspan class="text-outer-tspan" x="0" y="-0.1em" dy="1.1em"/></text></g></g><g class="edgeLabel"><g class="label" data-id="L_AU_PASS1_0_0" transform="translate(0, 0)"><text y="-10.1"><tspan class="text-outer-tspan" x="0" y="-0.1em" dy="1.1em"/></text></g></g><g class="edgeLabel"><g class="label" data-id="L_L2_HOST_0_0" transform="translate(0, 0)"><text y="-10.1"><tspan class="text-outer-tspan" x="0" y="-0.1em" dy="1.1em"/></text></g></g><g class="edgeLabel"><g class="label" data-id="L_HOST_PASS2_0_0" transform="translate(0, 0)"><text y="-10.1"><tspan class="text-outer-tspan" x="0" y="-0.1em" dy="1.1em"/></text></g></g><g class="edgeLabel" transform="translate(83.02473958333333, 503.921875)"><g class="label" data-id="L_PASS1_OK_0_0" transform="translate(-18.3203125, -13.5)"><g><rect class="background" style="" x="-2" y="0" width="36.640625" height="27"/><text y="-10.1" style=""><tspan class="text-outer-tspan" x="0" y="-0.1em" dy="1.1em"><tspan font-style="normal" class="text-inner-tspan" font-weight="normal">Yes</tspan></tspan></text></g></g></g><g class="edgeLabel" transform="translate(567.328125, 503.921875)"><g class="label" data-id="L_PASS2_OK_0_0" transform="translate(-18.3203125, -13.5)"><g><rect class="background" style="" x="-2" y="0" width="36.640625" height="27"/><text y="-10.1" style=""><tspan class="text-outer-tspan" x="0" y="-0.1em" dy="1.1em"><tspan font-style="normal" class="text-inner-tspan" font-weight="normal">Yes</tspan></tspan></text></g></g></g><g class="edgeLabel" transform="translate(338.6783854166667, 503.921875)"><g class="label" data-id="L_PASS1_FIX1_0_0" transform="translate(-14.7890625, -13.5)"><g><rect class="background" style="" x="-2" y="0" width="29.578125" height="27"/><text y="-10.1" style=""><tspan class="text-outer-tspan" x="0" y="-0.1em" dy="1.1em"><tspan font-style="normal" class="text-inner-tspan" font-weight="normal">No</tspan></tspan></text></g></g></g><g class="edgeLabel" transform="translate(617.9375, 503.921875)"><g class="label" data-id="L_PASS2_FIX2_0_0" transform="translate(-14.7890625, -13.5)"><g><rect class="background" style="" x="-2" y="0" width="29.578125" height="27"/><text y="-10.1" style=""><tspan class="text-outer-tspan" x="0" y="-0.1em" dy="1.1em"><tspan font-style="normal" class="text-inner-tspan" font-weight="normal">No</tspan></tspan></text></g></g></g></g></svg>